HIERARCHY
ROOT Hips
{
	OFFSET 0.00000 0.00000 0.00000
	CHANNELS 6 Xposition Yposition Zposition Zrotation Yrotation Xrotation 
	JOINT LHipJoint
	{
		OFFSET 0 0 0
		CHANNELS 3 Zrotation Yrotation Xrotation
		JOINT LeftUpLeg
		{
			OFFSET 1.58895 -1.83665 0.71753
			CHANNELS 3 Zrotation Yrotation Xrotation
			JOINT LeftLeg
			{
				OFFSET 2.50528 -6.88321 0.00000
				CHANNELS 3 Zrotation Yrotation Xrotation
				JOINT LeftFoot
				{
					OFFSET 2.63244 -7.23257 0.00000
					CHANNELS 3 Zrotation Yrotation Xrotation
					JOINT LeftToeBase
					{
						OFFSET 0.23691 -0.65090 1.72750
						CHANNELS 3 Zrotation Yrotation Xrotation
						End Site
						{
							OFFSET 0.00000 -0.00000 0.92561
						}
					}
				}
			}
		}
	}
	JOINT RHipJoint
	{
		OFFSET 0 0 0
		CHANNELS 3 Zrotation Yrotation Xrotation
		JOINT RightUpLeg
		{
			OFFSET -1.51435 -1.83665 0.71753
			CHANNELS 3 Zrotation Yrotation Xrotation
			JOINT RightLeg
			{
				OFFSET -2.54551 -6.99375 0.00000
				CHANNELS 3 Zrotation Yrotation Xrotation
				JOINT RightFoot
				{
					OFFSET -2.66027 -7.30903 0.00000
					CHANNELS 3 Zrotation Yrotation Xrotation
					JOINT RightToeBase
					{
						OFFSET -0.22981 -0.63138 2.03959
						CHANNELS 3 Zrotation Yrotation Xrotation
						End Site
						{
							OFFSET -0.00000 -0.00000 1.07060
						}
					}
				}
			}
		}
	}
	JOINT LowerBack
	{
		OFFSET 0 0 0
		CHANNELS 3 Zrotation Yrotation Xrotation
		JOINT Spine
		{
			OFFSET -0.02651 1.86275 -0.11152
			CHANNELS 3 Zrotation Yrotation Xrotation
			JOINT Spine1
			{
				OFFSET 0.01019 1.86224 0.04087
				CHANNELS 3 Zrotation Yrotation Xrotation
				JOINT Neck
				{
					OFFSET 0 0 0
					CHANNELS 3 Zrotation Yrotation Xrotation
					JOINT Neck1
					{
						OFFSET -0.01926 1.80512 0.08867
						CHANNELS 3 Zrotation Yrotation Xrotation
						JOINT Head
						{
							OFFSET 0.05516 1.76451 -0.38475
							CHANNELS 3 Zrotation Yrotation Xrotation
							End Site
							{
								OFFSET 0.01592 1.82587 -0.14001
							}
						}
					}
				}
				JOINT LeftShoulder
				{
					OFFSET 0 0 0
					CHANNELS 3 Zrotation Yrotation Xrotation
					JOINT LeftArm
					{
						OFFSET 3.47116 1.51376 0.14491
						CHANNELS 3 Zrotation Yrotation Xrotation
						JOINT LeftForeArm
						{
							OFFSET 4.78095 -0.00000 0.00000
							CHANNELS 3 Zrotation Yrotation Xrotation
							JOINT LeftHand
							{
								OFFSET 3.58615 -0.00000 -0.00000
								CHANNELS 3 Zrotation Yrotation Xrotation
								JOINT LeftFingerBase
								{
									OFFSET 0 0 0
									CHANNELS 3 Zrotation Yrotation Xrotation
									JOINT LeftHandIndex1
									{
										OFFSET 0.65981 -0.00000 0.00000
										CHANNELS 3 Zrotation Yrotation Xrotation
										End Site
										{
											OFFSET 0.53196 -0.00000 0.00000
										}
									}
								}
								JOINT LThumb
								{
									OFFSET 0 0 0
									CHANNELS 3 Zrotation Yrotation Xrotation
									End Site
									{
										OFFSET 0.54008 -0.00000 0.54008
									}
								}
							}
						}
					}
				}
				JOINT RightShoulder
				{
					OFFSET 0 0 0
					CHANNELS 3 Zrotation Yrotation Xrotation
					JOINT RightArm
					{
						OFFSET -3.31725 1.61216 0.35156
						CHANNELS 3 Zrotation Yrotation Xrotation
						JOINT RightForeArm
						{
							OFFSET -4.48913 -0.00000 0.00000
							CHANNELS 3 Zrotation Yrotation Xrotation
							JOINT RightHand
							{
								OFFSET -3.70510 -0.00000 0.00000
								CHANNELS 3 Zrotation Yrotation Xrotation
								JOINT RightFingerBase
								{
									OFFSET 0 0 0
									CHANNELS 3 Zrotation Yrotation Xrotation
									JOINT RightHandIndex1
									{
										OFFSET -0.44914 -0.00000 0.00000
										CHANNELS 3 Zrotation Yrotation Xrotation
										End Site
										{
											OFFSET -0.36211 -0.00000 0.00000
										}
									}
								}
								JOINT RThumb
								{
									OFFSET 0 0 0
									CHANNELS 3 Zrotation Yrotation Xrotation
									End Site
									{
										OFFSET -0.36763 -0.00000 0.36763
									}
								}
							}
						}
					}
				}
			}
		}
	}
}
MOTION
Frames: 8
Frame Time: .0083333
-0.8004 18.6626 6.1919 0 0 0 0 0 0 -21 0 0 0 0 0 0 0 0 0 0 0 0 0 0 21 0 0 0 0 0 0 0 0 0 0 0 0 0 0 0 0 0 0 0 0 0 0 -16 0 0 21 0 0 11 0 0 0 -8 0 0 0 0 0 0 0 0 0 0 0 0 0 0 0 0 0 0 0 0 8 0 0 0 0 0 0 0 0 0 0 0 0 0 0 0 0 0
-0.8004 18.6626 6.1919 -4.2001 -3.3757 2.4391 0.0000 0.0000 0.0000 -9.8873 -6.2950 -2.0883 1.4037 7.4944 21.1886 1.7338 4.2541 -26.7035 8.4052 -16.4094 -54.0095 0.0000 0.0000 0.0000 18.5686 2.1603 8.6240 0.0000 0.0000 -0.0000 -0.9408 -4.0202 -20.1969 -0.1361 2.3780 -6.5515 1.2264 0.8154 3.7999 0.7200 1.1701 -0.9318 -0.0221 0.5668 -3.0792 0.3228 -1.2777 -8.6369 2.3193 -2.2562 18.4430 0.5014 -0.8631 7.0854 -0.0000 0.0000 0.0000 -88.8252 13.8041 34.6200 23.7621 -34.9116 -7.5700 -0.0000 0.0000 -0.8863 1.9741 -21.3941 -0.7204 -7.1250 0.0000 -0.0000 -16.8257 9.2782 14.5520 -0.0000 0.0000 0.0000 89.4624 -16.7711 26.9242 -23.7830 34.9339 -7.5819 0.0000 0.0000 14.3137 9.2576 -29.1429 -4.5385 7.1250 -0.0000 -0.0000 41.4500 -54.0931 -10.6633
-0.8007 18.6631 6.1921 -4.1670 -3.3868 2.4559 0.0000 0.0000 0.0000 -9.9283 -6.3223 -2.0848 1.4010 7.4874 21.1676 1.7273 4.3183 -26.6903 8.4135 -16.4151 -54.0387 0.0000 0.0000 0.0000 18.5326 2.1769 8.6054 0.0000 0.0000 -0.0000 -0.9396 -4.0239 -20.1878 -0.1294 2.3186 -6.3871 1.1974 0.8201 3.7900 0.7066 1.1743 -0.9338 -0.0198 0.5693 -3.0759 0.3482 -1.2805 -8.6169 2.3071 -2.2611 18.4256 0.4930 -0.8651 7.0759 0.0000 0.0000 0.0000 -88.7874 13.8114 34.7134 23.8621 -35.0181 -7.6273 -0.0000 0.0000 -0.8750 1.8679 -20.9424 -0.6679 -7.1250 0.0000 -0.0000 -16.9093 9.7164 14.4753 0.0000 0.0000 0.0000 89.4994 -16.7913 26.8939 -23.7940 34.9456 -7.5882 0.0000 0.0000 14.3311 9.1836 -29.0842 -4.4935 7.1250 -0.0000 -0.0000 41.3351 -54.0615 -10.5903
-0.8007 18.6634 6.1926 -4.1388 -3.3953 2.4722 0.0000 0.0000 0.0000 -9.9601 -6.3416 -2.0941 1.4012 7.4881 21.1698 1.7324 4.2862 -26.7101 8.3871 -16.3967 -53.9455 0.0000 0.0000 0.0000 18.5019 2.1906 8.5880 0.0000 0.0000 -0.0000 -0.9374 -4.0463 -20.1797 -0.1341 2.3602 -6.5023 1.1660 0.8164 3.7778 0.6990 1.1674 -0.9296 -0.0093 0.5665 -3.0653 0.3936 -1.2743 -8.5553 2.2824 -2.2526 18.3583 0.4786 -0.8614 7.0423 0.0000 -0.0000 0.0000 -88.7703 13.8066 34.6898 23.8712 -35.0277 -7.6325 -0.0000 0.0000 -0.8666 1.8078 -20.9840 -0.6476 -7.1250 0.0000 -0.0000 -16.9447 9.6801 14.5216 0.0000 -0.0000 0.0000 89.5109 -16.7877 26.9295 -23.7979 34.9498 -7.5905 0.0000 0.0000 14.3268 9.1669 -29.0150 -4.4755 7.1250 -0.0000 -0.0000 41.2619 -54.0107 -10.5104
-0.7999 18.6637 6.1934 -4.1506 -3.3962 2.4961 0.0000 0.0000 0.0000 -9.9335 -6.2620 -2.1528 1.4010 7.4876 21.1681 1.7304 4.2179 -26.6613 8.3856 -16.3957 -53.9400 0.0000 0.0000 0.0000 18.5112 2.1990 8.5676 0.0000 0.0000 -0.0000 -0.9371 -4.0499 -20.1793 -0.1401 2.4122 -6.6463 1.1921 0.8078 3.7412 0.7006 1.1564 -0.9212 -0.0209 0.5607 -3.0356 0.4174 -1.2741 -8.4818 2.2795 -2.2523 18.2788 0.4743 -0.8615 7.0033 0.0000 0.0000 0.0000 -88.7795 13.7988 34.6359 23.8735 -35.0302 -7.6338 -0.0000 0.0000 -0.8414 1.8070 -21.0061 -0.6479 -7.1250 0.0000 -0.0000 -16.9443 9.6590 14.5287 0.0000 0.0000 0.0000 89.5170 -16.7606 26.9563 -23.7825 34.9334 -7.5817 0.0000 0.0000 14.3480 9.1216 -28.9231 -4.4403 7.1250 -0.0000 -0.0000 41.1449 -53.9477 -10.4031
-0.7987 18.6637 6.1940 -4.1955 -3.4061 2.5031 0.0000 0.0000 0.0000 -9.8693 -6.1471 -2.2052 1.4004 7.4859 21.1632 1.7210 4.1898 -26.5810 8.4089 -16.4120 -54.0227 0.0000 0.0000 0.0000 18.5557 2.2114 8.5679 0.0000 0.0000 0.0000 -0.9366 -4.0320 -20.1646 -0.1394 2.4061 -6.6293 1.2755 0.8064 3.7355 0.6961 1.1582 -0.9154 -0.0722 0.5602 -3.0247 0.4299 -1.2759 -8.4465 2.3262 -2.2639 18.2356 0.4866 -0.8631 6.9837 -0.0000 0.0000 0.0000 -88.7461 13.7996 34.6597 23.8752 -35.0320 -7.6348 -0.0000 0.0000 -0.8685 1.8536 -20.9951 -0.6643 -7.1250 0.0000 -0.0000 -16.9160 9.6670 14.4992 -0.0000 0.0000 0.0000 89.5666 -16.7496 26.9235 -23.7827 34.9336 -7.5817 0.0000 0.0000 14.3898 9.1296 -28.9491 -4.4478 7.1250 -0.0000 -0.0000 41.1739 -53.9665 -10.4331
-0.7977 18.6633 6.1944 -4.1699 -3.4217 2.4707 0.0000 0.0000 0.0000 -9.9046 -6.1257 -2.1725 1.3997 7.4843 21.1582 1.7234 4.1867 -26.5964 8.4045 -16.4089 -54.0070 0.0000 0.0000 0.0000 18.5243 2.2151 8.6034 0.0000 0.0000 -0.0000 -0.9357 -4.0320 -20.1559 -0.1381 2.3955 -6.6001 1.2585 0.8039 3.7735 0.6846 1.1544 -0.9076 -0.0748 0.5584 -3.0382 0.4928 -1.2656 -8.4315 2.3141 -2.2570 18.2222 0.4729 -0.8568 6.9759 0.0000 -0.0000 0.0000 -88.7160 13.8044 34.6900 23.8782 -35.0352 -7.6365 -0.0000 0.0000 -0.9180 1.8591 -20.9673 -0.6655 -7.1250 0.0000 -0.0000 -16.9138 9.6931 14.4878 0.0000 -0.0000 0.0000 89.5886 -16.7678 26.9248 -23.8006 34.9527 -7.5920 0.0000 0.0000 14.4209 9.1818 -29.0776 -4.4917 7.1250 -0.0000 -0.0000 41.3279 -54.0567 -10.5826
-0.7975 18.6624 6.1950 -4.0996 -3.4248 2.4316 0.0000 0.0000 0.0000 -9.9935 -6.1374 -2.1217 1.3988 7.4819 21.1510 1.7251 4.2024 -26.6166 8.4048 -16.4091 -54.0080 0.0000 0.0000 0.0000 18.4467 2.2022 8.6431 0.0000 0.0000 -0.0000 -0.9357 -4.0368 -20.1586 -0.1431 2.4383 -6.7185 1.1620 0.7983 3.8061 0.6803 1.1426 -0.8986 -0.0249 0.5542 -3.0491 0.5620 -1.2588 -8.3934 2.2543 -2.2459 18.1917 0.4434 -0.8527 6.9578 0.0000 0.0000 0.0000 -88.7311 13.7958 34.6772 23.8736 -35.0303 -7.6339 -0.0000 0.0000 -0.9491 1.8050 -20.9468 -0.6455 -7.1250 0.0000 -0.0000 -16.9480 9.7158 14.5118 0.0000 0.0000 0.0000 89.5696 -16.7981 26.9350 -23.8113 34.9641 -7.5982 0.0000 0.0000 14.4557 9.1835 -29.0989 -4.4955 7.1250 -0.0000 -0.0000 41.3473 -54.0729 -10.6068
